<svg width="263" height="48" viewBox="0 0 263 48" fill="none" xmlns="http://www.w3.org/2000/svg">
<path d="M21.1925 47.5129C16.9712 47.5129 13.2668 46.5428 10.0793 44.6026C6.89186 42.6193 4.4151 39.8814 2.64906 36.3891C0.883019 32.8967 0 28.8222 0 24.1657C0 19.5523 0.883019 15.4779 2.64906 11.9424C4.45817 8.4069 6.99954 5.64749 10.2732 3.66417C13.5899 1.68084 17.4881 0.689178 21.9678 0.689178C27.0505 0.689178 31.2933 1.91798 34.6962 4.37558C38.0991 6.79006 40.2743 10.1746 41.2219 14.5293H34.9547C34.3516 11.813 32.9302 9.65726 30.6903 8.06198C28.4505 6.46669 25.543 5.66905 21.9678 5.66905C18.6511 5.66905 15.7436 6.42358 13.2453 7.93263C10.7901 9.39857 8.89481 11.5112 7.55951 14.2707C6.22421 17.0301 5.55656 20.3284 5.55656 24.1657C5.55656 28.003 6.22421 31.3229 7.55951 34.1255C8.89481 36.8849 10.747 38.9976 13.1161 40.4635C15.5282 41.9294 18.285 42.6624 21.3863 42.6624C26.2106 42.6624 29.8504 41.2396 32.3056 38.3939C34.7608 35.5483 36.1607 31.6894 36.5053 26.8173H23.4539V22.5489H42.0619V46.7368H37.0868L36.6345 39.2994C35.5577 41.0671 34.3085 42.5762 32.8871 43.8265C31.5087 45.0338 29.8719 45.9608 27.9766 46.6075C26.0814 47.2111 23.82 47.5129 21.1925 47.5129Z" fill="#222222"/>
<path d="M50.3846 46.7368V14.1413H55.2951L55.6827 20.35C56.415 18.884 57.3411 17.6337 58.461 16.5989C59.624 15.5641 61.0024 14.7665 62.5961 14.206C64.2329 13.6455 66.0851 13.3652 68.1527 13.3652V19.0565H66.1497C64.7714 19.0565 63.4576 19.2505 62.2085 19.6386C60.9593 19.9835 59.8394 20.5656 58.8487 21.3848C57.901 22.204 57.1472 23.325 56.5873 24.7478C56.0704 26.1275 55.8119 27.8521 55.8119 29.9217V46.7368H50.3846Z" fill="#222222"/>
<path d="M84.8945 47.5129C82.267 47.5129 80.0702 47.0602 78.3042 46.1548C76.5382 45.2062 75.2244 43.9774 74.3629 42.4684C73.5014 40.9162 73.0707 39.2347 73.0707 37.4238C73.0707 35.2249 73.6307 33.3709 74.7506 31.8619C75.9136 30.3097 77.5289 29.1456 79.5964 28.3695C81.7071 27.5503 84.1838 27.1407 87.0267 27.1407H95.62C95.62 25.1143 95.2969 23.4328 94.6508 22.0962C94.0478 20.7165 93.1432 19.6817 91.9372 18.9918C90.7742 18.302 89.3096 17.9571 87.5436 17.9571C85.476 17.9571 83.6885 18.4744 82.1809 19.5092C80.6733 20.544 79.7472 22.0746 79.4026 24.1011H73.846C74.1045 21.7728 74.8798 19.8326 76.172 18.2804C77.5073 16.6851 79.1872 15.4779 81.2117 14.6587C83.2362 13.7964 85.3468 13.3652 87.5436 13.3652C90.5588 13.3652 93.0571 13.9257 95.0385 15.0467C97.063 16.1246 98.5706 17.6552 99.5613 19.6386C100.552 21.5788 101.047 23.8855 101.047 26.5587V46.7368H96.2015L95.8784 40.9809C95.4477 41.8863 94.8877 42.7486 94.1986 43.5678C93.5524 44.3439 92.7771 45.0338 91.8726 45.6374C90.968 46.1979 89.9342 46.6506 88.7712 46.9955C87.6513 47.3405 86.3591 47.5129 84.8945 47.5129ZM85.7345 42.9211C87.2421 42.9211 88.5989 42.6193 89.805 42.0157C91.0541 41.3689 92.1095 40.5066 92.9709 39.4287C93.8324 38.3077 94.4785 37.0789 94.9093 35.7423C95.3831 34.4057 95.62 33.0045 95.62 31.5385V31.3445H87.479C85.3684 31.3445 83.6669 31.6032 82.3747 32.1206C81.0825 32.5949 80.1564 33.2847 79.5964 34.1901C79.0365 35.0525 78.7565 36.0441 78.7565 37.1651C78.7565 38.3293 79.0149 39.3425 79.5318 40.2048C80.0918 41.0671 80.8886 41.7354 81.9224 42.2097C82.9993 42.684 84.27 42.9211 85.7345 42.9211Z" fill="#222222"/>
<path d="M123.787 47.5129C120.643 47.5129 117.886 46.78 115.517 45.314C113.148 43.805 111.317 41.757 110.025 39.17C108.733 36.5831 108.086 33.6512 108.086 30.3744C108.086 27.0976 108.733 24.1873 110.025 21.6435C111.317 19.0565 113.148 17.0301 115.517 15.5641C117.929 14.0982 120.707 13.3652 123.852 13.3652C126.522 13.3652 128.848 13.9042 130.83 14.9821C132.854 16.06 134.405 17.569 135.482 19.5092V0.171788H140.909V46.7368H135.998L135.546 41.3689C134.857 42.4468 133.974 43.46 132.897 44.4086C131.82 45.314 130.528 46.0685 129.02 46.6722C127.513 47.2327 125.768 47.5129 123.787 47.5129ZM124.433 42.7917C126.587 42.7917 128.482 42.2744 130.119 41.2396C131.756 40.2048 133.026 38.782 133.931 36.9711C134.835 35.1171 135.288 32.9398 135.288 30.4391C135.288 27.9815 134.835 25.8257 133.931 23.9717C133.026 22.1177 131.756 20.6733 130.119 19.6386C128.482 18.6038 126.587 18.0864 124.433 18.0864C122.322 18.0864 120.449 18.6038 118.812 19.6386C117.175 20.6733 115.904 22.1177 115 23.9717C114.095 25.8257 113.643 27.9815 113.643 30.4391C113.643 32.9398 114.095 35.1171 115 36.9711C115.904 38.782 117.175 40.2048 118.812 41.2396C120.449 42.2744 122.322 42.7917 124.433 42.7917Z" fill="#222222"/>
<path d="M164.23 47.5129C161.172 47.5129 158.459 46.8015 156.09 45.3787C153.764 43.9559 151.933 41.9725 150.598 39.4287C149.262 36.8418 148.595 33.8452 148.595 30.4391C148.595 26.9898 149.241 23.9933 150.533 21.4494C151.868 18.9056 153.72 16.9223 156.09 15.4995C158.502 14.0766 161.258 13.3652 164.36 13.3652C167.547 13.3652 170.239 14.0766 172.436 15.4995C174.676 16.9223 176.377 18.7978 177.54 21.1261C178.746 23.4112 179.35 25.9335 179.35 28.6929C179.35 29.124 179.35 29.5768 179.35 30.051C179.35 30.5253 179.328 31.0643 179.285 31.6679H152.665V27.4641H174.051C173.922 24.4891 172.931 22.1608 171.079 20.4793C169.27 18.7978 166.987 17.9571 164.23 17.9571C162.378 17.9571 160.655 18.3882 159.062 19.2505C157.511 20.0697 156.262 21.2985 155.314 22.9369C154.367 24.5322 153.893 26.5371 153.893 28.9516V30.7624C153.893 33.4356 154.367 35.6776 155.314 37.4885C156.305 39.2994 157.576 40.6575 159.126 41.5629C160.72 42.4684 162.421 42.9211 164.23 42.9211C166.513 42.9211 168.387 42.4253 169.852 41.4336C171.359 40.3988 172.436 39.0191 173.082 37.2945H178.445C177.928 39.2347 177.024 40.9809 175.731 42.5331C174.439 44.0852 172.824 45.314 170.885 46.2194C168.99 47.0818 166.772 47.5129 164.23 47.5129Z" fill="#222222"/>
<path d="M214.557 25.9592H215.78V48H193.761V47.3877L214.557 25.9592Z" fill="url(#paint0_linear_159_10)"/>
<path d="M193.761 0H216.233L263 46.7848V48H241.135L193.761 0Z" fill="url(#paint1_linear_159_10)"/>
<path d="M240.98 0H263V0.612245L241.61 22.0408H240.98V0Z" fill="url(#paint2_linear_159_10)"/>
<defs>
<linearGradient id="paint0_linear_159_10" x1="0" y1="24" x2="263" y2="24" gradientUnits="userSpaceOnUse">
<stop stop-color="#013A00"/>
<stop offset="0.86" stop-color="#03A000"/>
<stop offset="1" stop-color="#E6EA45"/>
</linearGradient>
<linearGradient id="paint1_linear_159_10" x1="0" y1="24" x2="263" y2="24" gradientUnits="userSpaceOnUse">
<stop stop-color="#013A00"/>
<stop offset="0.86" stop-color="#03A000"/>
<stop offset="1" stop-color="#E6EA45"/>
</linearGradient>
<linearGradient id="paint2_linear_159_10" x1="0" y1="24" x2="263" y2="24" gradientUnits="userSpaceOnUse">
<stop stop-color="#013A00"/>
<stop offset="0.86" stop-color="#03A000"/>
<stop offset="1" stop-color="#E6EA45"/>
</linearGradient>
</defs>
</svg>
